<svg width="34" height="34" viewBox="0 0 34 34" fill="none" xmlns="http://www.w3.org/2000/svg">
<g filter="url(#filter0_d_1_381)">
<path d="M19.5 16.25H18.25V15C18.25 14.6685 18.1183 14.3505 17.8839 14.1161C17.6495 13.8817 17.3315 13.75 17 13.75C16.6685 13.75 16.3505 13.8817 16.1161 14.1161C15.8817 14.3505 15.75 14.6685 15.75 15V16.25H14.5C14.1685 16.25 13.8505 16.3817 13.6161 16.6161C13.3817 16.8505 13.25 17.1685 13.25 17.5C13.25 17.8315 13.3817 18.1495 13.6161 18.3839C13.8505 18.6183 14.1685 18.75 14.5 18.75H15.75V20C15.75 20.3315 15.8817 20.6495 16.1161 20.8839C16.3505 21.1183 16.6685 21.25 17 21.25C17.3315 21.25 17.6495 21.1183 17.8839 20.8839C18.1183 20.6495 18.25 20.3315 18.25 20V18.75H19.5C19.8315 18.75 20.1495 18.6183 20.3839 18.3839C20.6183 18.1495 20.75 17.8315 20.75 17.5C20.75 17.1685 20.6183 16.8505 20.3839 16.6161C20.1495 16.3817 19.8315 16.25 19.5 16.25Z" fill="white" fill-opacity="0.38"/>
<path d="M26.375 8.81249H17.625L14.3375 4.83749C14.2212 4.6941 14.0745 4.57825 13.9081 4.49829C13.7417 4.41832 13.5596 4.37621 13.375 4.37499H7.625C6.80826 4.36496 6.02083 4.67898 5.43512 5.24829C4.84942 5.8176 4.51317 6.59579 4.5 7.41249V22.5875C4.51317 23.4042 4.84942 24.1824 5.43512 24.7517C6.02083 25.321 6.80826 25.635 7.625 25.625H26.375C27.1917 25.635 27.9792 25.321 28.5649 24.7517C29.1506 24.1824 29.4868 23.4042 29.5 22.5875V11.85C29.4868 11.0333 29.1506 10.2551 28.5649 9.68579C27.9792 9.11648 27.1917 8.80246 26.375 8.81249ZM27 22.5625C26.9953 22.6392 26.9753 22.7142 26.9411 22.783C26.9069 22.8518 26.8593 22.9131 26.801 22.9632C26.7427 23.0133 26.675 23.0512 26.6019 23.0747C26.5287 23.0982 26.4515 23.1068 26.375 23.1H7.625C7.54846 23.1068 7.47132 23.0982 7.39815 23.0747C7.32498 23.0512 7.25726 23.0133 7.199 22.9632C7.14073 22.9131 7.0931 22.8518 7.05892 22.783C7.02474 22.7142 7.00471 22.6392 7 22.5625V7.41249C7.00471 7.33578 7.02474 7.2608 7.05892 7.19197C7.0931 7.12315 7.14073 7.06187 7.199 7.01176C7.25726 6.96165 7.32498 6.92373 7.39815 6.90024C7.47132 6.87675 7.54846 6.86816 7.625 6.87499H12.7875L16.0375 10.85C16.1538 10.9934 16.3005 11.1092 16.4669 11.1892C16.6333 11.2692 16.8154 11.3113 17 11.3125H26.375C26.4515 11.3057 26.5287 11.3142 26.6019 11.3377C26.675 11.3612 26.7427 11.3992 26.801 11.4493C26.8593 11.4994 26.9069 11.5606 26.9411 11.6295C26.9753 11.6983 26.9953 11.7733 27 11.85V22.5625Z" fill="white" fill-opacity="0.38"/>
</g>
<defs>
<filter id="filter0_d_1_381" x="-2" y="0" width="38" height="38" filterUnits="userSpaceOnUse" color-interpolation-filters="sRGB">
<feFlood flood-opacity="0" result="BackgroundImageFix"/>
<feColorMatrix in="SourceAlpha" type="matrix" values="0 0 0 0 0 0 0 0 0 0 0 0 0 0 0 0 0 0 127 0" result="hardAlpha"/>
<feOffset dy="4"/>
<feGaussianBlur stdDeviation="2"/>
<feComposite in2="hardAlpha" operator="out"/>
<feColorMatrix type="matrix" values="0 0 0 0 0 0 0 0 0 0 0 0 0 0 0 0 0 0 0.25 0"/>
<feBlend mode="normal" in2="BackgroundImageFix" result="effect1_dropShadow_1_381"/>
<feBlend mode="normal" in="SourceGraphic" in2="effect1_dropShadow_1_381" result="shape"/>
</filter>
</defs>
</svg>
